
<svg xmlns="http://www.w3.org/2000/svg" fill="white" xmlns:xlink="http://www.w3.org/1999/xlink" version="1.1" x="0px" y="0px" viewBox="0 0 100 125" style="enable-background:new 0 0 100 100;" xml:space="preserve"><g><path d="M88.4,50.7L76.5,6.1c-0.1-0.5-0.5-0.9-1-1c-0.5-0.2-1-0.1-1.4,0.2c-0.1,0.1-7.8,5.9-16.6,8.2c-4.2,1.1-8.7-0.1-13.5-1.5   c-4.9-1.4-10-2.8-15-1.5c-9.5,2.6-16.9,11.2-17.2,11.5c-0.3,0.4-0.4,0.9-0.3,1.4l18.9,70.4c0.2,0.7,0.8,1.1,1.4,1.1   c0.1,0,0.3,0,0.4-0.1c0.8-0.2,1.3-1,1.1-1.8L14.7,23.5c1.8-1.9,7.9-8,15.2-10c2-0.5,4-0.5,6.1-0.2l5.2,19.5c-2-0.2-4.1-0.1-6.1,0.4   c-3.5,0.9-7.1,2.8-10.8,5.6c-0.7,0.5-0.8,1.4-0.3,2.1c0.3,0.4,0.7,0.6,1.2,0.6c0.3,0,0.6-0.1,0.9-0.3c3.3-2.5,6.6-4.2,9.7-5.1   c4.2-1.1,8.7,0.1,13.5,1.5c4.9,1.4,10,2.8,15,1.5c6.9-1.8,12.9-5.5,15.8-7.5l1.2,4.4c-2.2,1.5-8.6,5.7-15.8,7.7   c-4.2,1.1-8.7-0.1-13.5-1.5c-4.9-1.4-10-2.8-15-1.5c-3.5,0.9-7.1,2.8-10.8,5.6c-0.7,0.5-0.8,1.4-0.3,2.1c0.3,0.4,0.7,0.6,1.2,0.6   c0.3,0,0.6-0.1,0.9-0.3c3.3-2.5,6.6-4.2,9.7-5.1c4.2-1.1,8.7,0.1,13.5,1.5c4.9,1.4,10,2.8,15,1.5c6.9-1.8,12.9-5.5,15.8-7.5   l1.2,4.4c-2.2,1.5-8.6,5.7-15.8,7.7c-4.2,1.1-8.7-0.1-13.5-1.5c-4.9-1.4-10-2.8-15-1.5c-3.5,0.9-7.1,2.8-10.8,5.6   c-0.7,0.5-0.8,1.4-0.3,2.1c0.3,0.4,0.7,0.6,1.2,0.6c0.3,0,0.6-0.1,0.9-0.3c3.3-2.5,6.6-4.2,9.7-5.1c4.2-1.1,8.7,0.1,13.5,1.5   c4.9,1.4,10,2.8,15,1.5c6.8-1.8,12.9-5.5,15.8-7.5l1.1,3.9c-2.2,1.5-8.7,5.7-15.8,7.6c-4.2,1.1-8.7-0.1-13.5-1.5   c-4.9-1.4-10-2.8-15-1.5c-3.5,0.9-7.1,2.8-10.8,5.6c-0.7,0.5-0.8,1.4-0.3,2.1c0.5,0.7,1.4,0.8,2.1,0.3c3.3-2.5,6.6-4.2,9.7-5.1   c4.2-1.1,8.7,0.1,13.5,1.5c4.9,1.4,10.1,2.8,15,1.5c9.4-2.5,17.3-8.5,17.6-8.7C88.4,51.9,88.6,51.2,88.4,50.7z M41.3,21.5   c1.3,0.3,2.7,0.7,4,1.1c3.5,1,7.2,2,10.8,2c1.4,0,2.8-0.2,4.3-0.5c6.9-1.8,12.9-5.5,15.8-7.5l1.2,4.4c-2.2,1.5-8.6,5.7-15.8,7.7   c-4.2,1.1-8.7-0.1-13.5-1.5c-1.9-0.5-3.8-1-5.7-1.4L41.3,21.5z M43.3,15c4.9,1.4,10,2.8,15,1.5c6.8-1.8,12.9-5.5,15.8-7.5l1.2,4.5   c-2.2,1.5-8.7,5.7-15.8,7.7c-4.2,1.1-8.7-0.1-13.5-1.5c-1.9-0.5-3.8-1-5.7-1.4l-1.2-4.3C40.6,14.2,41.9,14.6,43.3,15z M63.6,36.1   c-4.2,1.1-8.7-0.1-13.5-1.5c-1.9-0.5-3.8-1.1-5.7-1.4L43.3,29c1.3,0.3,2.7,0.7,4,1.1c3.5,1,7.2,2,10.8,2c1.4,0,2.8-0.2,4.3-0.5   c6.9-1.8,12.9-5.5,15.8-7.5l1.2,4.4C77.2,30,70.7,34.2,63.6,36.1z"/><ellipse transform="matrix(0.9659 -0.2588 0.2588 0.9659 -3.4112 8.8953)" cx="32.1" cy="17.4" rx="2" ry="2"/><ellipse transform="matrix(0.9659 -0.2588 0.2588 0.9659 -4.8583 9.4948)" cx="33.6" cy="23.2" rx="2" ry="2"/><ellipse transform="matrix(0.9659 -0.2588 0.2588 0.9659 -6.3054 10.0941)" cx="35.2" cy="29" rx="2" ry="2"/><ellipse transform="matrix(0.9659 -0.2588 0.2588 0.9659 -4.1312 7.4981)" cx="26.4" cy="19.4" rx="2" ry="2"/><ellipse transform="matrix(0.9659 -0.2588 0.2588 0.9659 -5.5783 8.0975)" cx="28" cy="25.2" rx="2" ry="2"/><ellipse transform="matrix(0.9659 -0.2588 0.2588 0.9659 -7.0254 8.697)" cx="29.5" cy="31" rx="2" ry="2"/><ellipse transform="matrix(0.9659 -0.2588 0.2588 0.9659 -5.0924 6.201)" cx="21" cy="22.4" rx="2" ry="2"/><ellipse transform="matrix(0.9659 -0.2588 0.2588 0.9659 -6.5394 6.8003)" cx="22.6" cy="28.2" rx="2" ry="2"/><ellipse transform="matrix(0.9659 -0.2588 0.2588 0.9659 -7.9865 7.3997)" cx="24.1" cy="34" rx="2" ry="2"/></g></svg>